<svg width="24" height="24" viewBox="0 0 24 24" fill="none" xmlns="http://www.w3.org/2000/svg">
<g clip-path="url(#clip0_569_480)">
<path d="M5.00002 11.0002H16.17L11.29 6.12021C10.9 5.73021 10.9 5.09021 11.29 4.70021C11.68 4.31021 12.31 4.31021 12.7 4.70021L19.29 11.2902C19.68 11.6802 19.68 12.3102 19.29 12.7002L12.7 19.2902C12.31 19.6802 11.68 19.6802 11.29 19.2902C10.9 18.9002 10.9 18.2702 11.29 17.8802L16.17 13.0002H5.00002C4.45002 13.0002 4.00002 12.5502 4.00002 12.0002C4.00002 11.4502 4.45002 11.0002 5.00002 11.0002Z" fill="#2B2B2B"/>
</g>
<defs>
<clipPath id="clip0_569_480">
<rect width="24" height="24" fill="white" transform="matrix(-1 0 0 1 24 0)"/>
</clipPath>
</defs>
</svg>
