<svg width="60" height="67" viewBox="0 0 60 67" fill="none" xmlns="http://www.w3.org/2000/svg">
<path d="M33.6667 21.4233C30.77 21.4233 28.4233 23.77 28.4233 26.6667C28.4233 29.5633 30.77 31.91 33.6667 31.91C36.5633 31.91 38.91 29.5633 38.91 26.6667C38.91 23.77 36.5633 21.4233 33.6667 21.4233Z" fill="#009CDE"/>
<path d="M34.4367 1.00007C20.3567 0.596741 8.77001 11.5234 8.07334 25.3467L1.03334 34.7334C0.116674 35.9434 0.996674 37.6667 2.50001 37.6667H8.00001V48.6667C8.00001 52.7001 11.3 56.0001 15.3333 56.0001H19V63.3334C19 65.3501 20.65 67.0001 22.6667 67.0001H41C43.0167 67.0001 44.6667 65.3501 44.6667 63.3334V49.8401C53.6133 45.5867 59.7 36.3467 59.3333 25.7134C58.82 12.4401 47.6733 1.40341 34.4367 1.00007ZM44.6667 26.6667C44.6667 27.1434 44.63 27.6201 44.5933 28.0967L47.6367 30.5167C47.93 30.7367 48.0033 31.1034 47.82 31.4334L44.8867 36.5301C44.7033 36.8601 44.3 36.9701 44.0067 36.8601L40.3767 35.3934C39.6067 35.9801 38.8 36.4567 37.92 36.8234L37.3333 40.7101C37.2967 41.0767 36.9667 41.3334 36.6 41.3334H30.7333C30.3667 41.3334 30.0733 41.0767 30 40.7101L29.45 36.8234C28.5333 36.4567 27.7267 35.9801 26.9567 35.3934L23.3267 36.8601C22.9967 36.9701 22.5933 36.8601 22.41 36.5301L19.4767 31.4334C19.2933 31.1401 19.3667 30.7367 19.66 30.5167L22.74 28.0967C22.7033 27.6201 22.6667 27.1434 22.6667 26.6667C22.6667 26.1901 22.74 25.6767 22.8133 25.2367L19.6967 22.8167C19.4033 22.5967 19.33 22.2301 19.5133 21.8634L22.4467 16.8034C22.63 16.4734 22.9967 16.3634 23.3267 16.4734L26.9933 17.9401C27.7267 17.3901 28.57 16.8767 29.45 16.5101L30 12.6234C30.0733 12.2567 30.3667 12.0001 30.7333 12.0001H36.6C36.9667 12.0001 37.26 12.2567 37.3333 12.6234L37.8833 16.5101C38.7633 16.8767 39.57 17.3534 40.34 17.9401L44.0067 16.4734C44.3367 16.3634 44.74 16.4734 44.8867 16.8034L47.82 21.8634C48.0033 22.1934 47.93 22.5967 47.6367 22.8167L44.52 25.2367C44.63 25.6767 44.6667 26.1534 44.6667 26.6667Z" fill="#009CDE"/>
</svg>
