<svg width="32" height="32" viewBox="0 0 32 32" fill="none" xmlns="http://www.w3.org/2000/svg">
<g clip-path="url(#clip0_60_195)">
<path d="M2.66663 22.6667C2.66663 23.4 3.26663 24 3.99996 24H28C28.7333 24 29.3333 23.4 29.3333 22.6667C29.3333 21.9333 28.7333 21.3333 28 21.3333H3.99996C3.26663 21.3333 2.66663 21.9333 2.66663 22.6667ZM2.66663 16C2.66663 16.7333 3.26663 17.3333 3.99996 17.3333H28C28.7333 17.3333 29.3333 16.7333 29.3333 16C29.3333 15.2667 28.7333 14.6667 28 14.6667H3.99996C3.26663 14.6667 2.66663 15.2667 2.66663 16ZM2.66663 9.33333C2.66663 10.0667 3.26663 10.6667 3.99996 10.6667H28C28.7333 10.6667 29.3333 10.0667 29.3333 9.33333C29.3333 8.6 28.7333 8 28 8H3.99996C3.26663 8 2.66663 8.6 2.66663 9.33333Z" fill="#171717"/>
</g>
<defs>
<clipPath id="clip0_60_195">
<rect width="32" height="32" fill="white"/>
</clipPath>
</defs>
</svg>
