<svg width="74" height="74" viewBox="0 0 74 74" fill="none" xmlns="http://www.w3.org/2000/svg">
<path d="M33.3333 4.65991V69.3399C33.3333 71.6866 31.17 73.4466 28.8967 72.9332C12.5067 69.2666 0.333336 54.5632 0.333336 36.9999C0.333336 19.4366 12.5067 4.73325 28.8967 1.06658C31.17 0.553247 33.3333 2.31325 33.3333 4.65991ZM40.7767 4.65991V29.6299C40.7767 31.6466 42.4267 33.2966 44.4433 33.2966H69.34C71.6867 33.2966 73.4467 31.1332 72.9333 28.8232C69.8167 15.0366 59 4.18325 45.25 1.06658C42.94 0.553247 40.7767 2.31325 40.7767 4.65991ZM40.7767 44.3699V69.3399C40.7767 71.6866 42.94 73.4466 45.25 72.9332C59.0367 69.8166 69.8533 58.9266 72.97 45.1399C73.4833 42.8666 71.6867 40.6666 69.3767 40.6666H44.48C42.4267 40.7032 40.7767 42.3532 40.7767 44.3699Z" fill="#009CDE"/>
</svg>
