<svg width="56" height="56" viewBox="0 0 56 56" fill="none" xmlns="http://www.w3.org/2000/svg">
<g clip-path="url(#clip0_434_492)">
<path d="M46.667 9.33301H9.33366C6.76699 9.33301 4.69033 11.433 4.69033 13.9997L4.66699 41.9997C4.66699 44.5663 6.76699 46.6663 9.33366 46.6663H46.667C49.2337 46.6663 51.3337 44.5663 51.3337 41.9997V13.9997C51.3337 11.433 49.2337 9.33301 46.667 9.33301ZM45.7337 19.2497L29.237 29.563C28.4903 30.0297 27.5103 30.0297 26.7637 29.563L10.267 19.2497C9.68366 18.8763 9.33366 18.2463 9.33366 17.5697C9.33366 16.0063 11.037 15.073 12.367 15.8897L28.0003 25.6663L43.6337 15.8897C44.9637 15.073 46.667 16.0063 46.667 17.5697C46.667 18.2463 46.317 18.8763 45.7337 19.2497Z" fill="#2B2B2B"/>
</g>
<defs>
<clipPath id="clip0_434_492">
<rect width="56" height="56" fill="white"/>
</clipPath>
</defs>
</svg>
