<svg width="56" height="56" viewBox="0 0 56 56" fill="none" xmlns="http://www.w3.org/2000/svg">
<g clip-path="url(#clip0_131_1184)">
<path d="M28.0002 28.0003C30.5668 28.0003 32.6668 25.9003 32.6668 23.3337C32.6668 20.767 30.5668 18.667 28.0002 18.667C25.4335 18.667 23.3335 20.767 23.3335 23.3337C23.3335 25.9003 25.4335 28.0003 28.0002 28.0003ZM28.0002 4.66699C37.8002 4.66699 46.6668 12.1803 46.6668 23.8003C46.6668 31.2203 40.9502 39.947 29.5402 50.0037C28.6535 50.7737 27.3235 50.7737 26.4368 50.0037C15.0502 39.947 9.3335 31.2203 9.3335 23.8003C9.3335 12.1803 18.2002 4.66699 28.0002 4.66699Z" fill="#2B2B2B"/>
</g>
<defs>
<clipPath id="clip0_131_1184">
<rect width="56" height="56" fill="white"/>
</clipPath>
</defs>
</svg>
