<svg width="290" height="31" viewBox="0 0 290 31" fill="none" xmlns="http://www.w3.org/2000/svg">
<path d="M1.46863 1.34896H34.9825V8.27604L15.5735 22.3281H35.5719V29.651H0.643555V22.724L19.8168 8.67187H1.46863V1.34896Z" fill="#ECECEC"/>
<path d="M43.4193 29.651V1.34896H73.6722V8.19687H52.063V12.1156H72.6899V18.924H52.063V22.8031H73.6722V29.651H43.4193Z" fill="#ECECEC"/>
<path d="M94.2994 1.38854H109.151L123.059 29.651H112.962L110.29 24.9406H93.16L90.4883 29.651H80.391L94.2994 1.38854ZM102.393 7.76146H101.057L96.3818 17.6177H107.029L102.393 7.76146Z" fill="#ECECEC"/>
<path d="M129.401 1.38854H138.045V22.3281H157.65V29.651H129.401V1.38854Z" fill="#ECECEC"/>
<path d="M180.885 0.953125C188.9 0.953125 193.837 1.62604 195.697 2.97187C197.321 4.13299 198.133 7.22048 198.133 12.2344H189.45C189.45 10.5983 189.018 9.5559 188.154 9.10729C187.08 8.55312 184.657 8.27604 180.885 8.27604C176.668 8.27604 174.193 8.6059 173.459 9.26562C172.726 9.92535 172.359 12.0101 172.359 15.5198C172.359 19.0031 172.726 21.0747 173.459 21.7344C174.193 22.3941 176.668 22.724 180.885 22.724C184.709 22.724 187.093 22.4997 188.036 22.051C189.005 21.576 189.489 20.4809 189.489 18.7656H198.133C198.133 23.8059 197.347 26.8934 195.776 28.0281C193.916 29.374 188.952 30.0469 180.885 30.0469C172.818 30.0469 167.933 29.308 166.23 27.8302C164.554 26.3524 163.716 22.2358 163.716 15.4802C163.716 8.75104 164.528 4.67396 166.151 3.24896C167.906 1.7184 172.818 0.953125 180.885 0.953125Z" fill="#ECECEC"/>
<path d="M243.269 15.5198C243.269 22.4073 242.444 26.524 240.794 27.8698C239.013 29.3212 233.643 30.0469 224.685 30.0469C218.137 30.0469 213.842 29.8094 211.798 29.3344C209.232 28.7274 207.608 27.408 206.927 25.376C206.403 23.8191 206.141 20.5337 206.141 15.5198C206.141 8.63229 206.953 4.51562 208.577 3.16979C210.358 1.69201 215.727 0.953125 224.685 0.953125C233.617 0.953125 238.974 1.67882 240.755 3.13021C242.431 4.50243 243.269 8.63229 243.269 15.5198ZM214.784 15.5198C214.784 19.1351 215.19 21.2462 216.002 21.8531C216.841 22.4337 219.735 22.724 224.685 22.724C229.662 22.724 232.556 22.4337 233.368 21.8531C234.207 21.2462 234.626 19.1351 234.626 15.5198C234.626 11.8781 234.207 9.76701 233.368 9.18646C232.556 8.57951 229.675 8.27604 224.725 8.27604C219.748 8.27604 216.841 8.57951 216.002 9.18646C215.19 9.76701 214.784 11.8781 214.784 15.5198Z" fill="#ECECEC"/>
<path d="M290 1.42812H281.356V20.9031C281.566 21.642 281.775 22.3677 281.985 23.0802C281.985 23.3441 281.998 23.608 282.024 23.8719C281.841 23.8719 281.658 23.7003 281.474 23.3573C281.317 23.0142 281.16 22.6712 281.003 22.3281L266.23 1.42812H252.086V29.6906H260.729V10.176C260.729 10.1497 260.507 9.42396 260.062 7.99896C260.035 7.73507 260.022 7.47118 260.022 7.20729C260.206 7.20729 260.376 7.39201 260.533 7.76146C260.716 8.10451 260.887 8.43437 261.044 8.75104L275.856 29.6906H290V1.42812Z" fill="#ECECEC"/>
</svg>
