<svg width="74" height="74" viewBox="0 0 74 74" fill="none" xmlns="http://www.w3.org/2000/svg">
<path d="M37 0.333496C16.76 0.333496 0.333344 16.7602 0.333344 37.0002C0.333344 57.2402 16.76 73.6668 37 73.6668C57.24 73.6668 73.6667 57.2402 73.6667 37.0002C73.6667 16.7602 57.24 0.333496 37 0.333496ZM42.17 59.3302V61.4568C42.17 64.1335 39.97 66.3335 37.2933 66.3335H37.2567C34.58 66.3335 32.38 64.1335 32.38 61.4568V59.2568C27.5033 58.2302 23.1767 55.5535 21.3433 51.0435C20.5 49.0268 22.0767 46.7902 24.2767 46.7902H25.1567C26.5133 46.7902 27.6133 47.7068 28.1267 48.9902C29.19 51.7402 31.9767 53.6468 37.33 53.6468C44.5167 53.6468 46.13 50.0535 46.13 47.8168C46.13 44.7735 44.5167 41.9135 36.34 39.9702C27.2467 37.7702 21.0133 34.0302 21.0133 26.5135C21.0133 20.2068 26.11 16.1002 32.4167 14.7435V12.5435C32.4167 9.86683 34.6167 7.66683 37.2933 7.66683H37.33C40.0067 7.66683 42.2067 9.86683 42.2067 12.5435V14.8168C47.2667 16.0635 50.4567 19.2168 51.85 23.1035C52.5833 25.1202 51.0433 27.2468 48.88 27.2468H47.9267C46.57 27.2468 45.47 26.2935 45.1033 24.9735C44.26 22.1868 41.95 20.3902 37.33 20.3902C31.83 20.3902 28.53 22.8835 28.53 26.4035C28.53 29.4835 30.9133 31.5002 38.32 33.4068C45.7267 35.3135 53.6467 38.5035 53.6467 47.7435C53.5733 54.4535 48.55 58.1202 42.17 59.3302Z" fill="#009CDE"/>
</svg>
