<svg width="24" height="24" viewBox="0 0 24 24" fill="none" xmlns="http://www.w3.org/2000/svg">
<g clip-path="url(#clip0_60_184)">
<path d="M4.78 15.2695L7.32 14.9795C7.93 14.9095 8.53 15.1195 8.96 15.5495L10.8 17.3895C13.63 15.9495 15.95 13.6395 17.39 10.7995L15.54 8.94953C15.11 8.51953 14.9 7.91953 14.97 7.30953L15.26 4.78953C15.38 3.77953 16.23 3.01953 17.25 3.01953H18.98C20.11 3.01953 21.05 3.95953 20.98 5.08953C20.45 13.6295 13.62 20.4495 5.09 20.9795C3.96 21.0495 3.02 20.1095 3.02 18.9795V17.2495C3.01 16.2395 3.77 15.3895 4.78 15.2695Z" fill="#009CDE"/>
</g>
<defs>
<clipPath id="clip0_60_184">
<rect width="24" height="24" fill="white"/>
</clipPath>
</defs>
</svg>
