<svg width="40" height="40" viewBox="0 0 40 40" fill="none" xmlns="http://www.w3.org/2000/svg">
<g clip-path="url(#clip0_315_647)">
<path d="M7.9667 25.4499L12.2 24.9665C13.2167 24.8499 14.2167 25.1999 14.9334 25.9165L18 28.9832C22.7167 26.5832 26.5834 22.7332 28.9834 17.9999L25.9 14.9165C25.1834 14.1999 24.8334 13.1999 24.95 12.1832L25.4334 7.9832C25.6334 6.29987 27.05 5.0332 28.75 5.0332H31.6334C33.5167 5.0332 35.0834 6.59987 34.9667 8.4832C34.0834 22.7165 22.7 34.0832 8.48337 34.9665C6.60003 35.0832 5.03337 33.5165 5.03337 31.6332V28.7499C5.0167 27.0665 6.28337 25.6499 7.9667 25.4499Z" fill="#2B2B2B"/>
</g>
<defs>
<clipPath id="clip0_315_647">
<rect width="40" height="40" fill="white"/>
</clipPath>
</defs>
</svg>
