<svg width="66" height="66" viewBox="0 0 66 66" fill="none" xmlns="http://www.w3.org/2000/svg">
<path d="M51.3333 29.3332C52.58 29.3332 53.79 29.4799 55 29.6632V16.7932C55 13.8599 53.2767 11.2199 50.6 10.0832L30.4333 1.28322C28.5633 0.476556 26.4367 0.476556 24.5667 1.28322L4.4 10.0832C1.72333 11.2566 0 13.8966 0 16.7932V29.9932C0 46.6399 11.7333 62.2232 27.5 65.9999C29.5167 65.5232 31.46 64.8266 33.3667 63.9832C30.8367 60.3899 29.3333 56.0266 29.3333 51.3332C29.3333 39.1966 39.1967 29.3332 51.3333 29.3332Z" fill="#009CDE"/>
<path d="M51.3333 36.6665C43.23 36.6665 36.6667 43.2298 36.6667 51.3332C36.6667 59.4365 43.23 65.9998 51.3333 65.9998C59.4367 65.9998 66 59.4365 66 51.3332C66 43.2298 59.4367 36.6665 51.3333 36.6665ZM51.3333 41.7265C53.6067 41.7265 55.44 43.5965 55.44 45.8332C55.44 48.0698 53.57 49.9398 51.3333 49.9398C49.0967 49.9398 47.2267 48.0698 47.2267 45.8332C47.2267 43.5965 49.06 41.7265 51.3333 41.7265ZM51.3333 61.4165C47.9233 61.4165 44.9533 59.7298 43.12 57.1265C43.3033 54.4865 48.6567 53.1665 51.3333 53.1665C54.01 53.1665 59.3633 54.4865 59.5467 57.1265C57.7133 59.7298 54.7433 61.4165 51.3333 61.4165Z" fill="#009CDE"/>
</svg>
