<svg width="188" height="20" viewBox="0 0 188 20" fill="none" xmlns="http://www.w3.org/2000/svg">
<g clip-path="url(#clip0_434_811)">
<path d="M0.536068 0.758503H22.3106V5.28231L9.70027 14.4592H22.6935V19.2415H0V14.7177L12.4572 5.54082H0.536068V0.758503Z" fill="#2B2B2B"/>
<path d="M27.7922 19.2415V0.758503H47.448V5.23061H33.4081V7.7898H46.8098V12.2361H33.4081V14.7694H47.448V19.2415H27.7922Z" fill="#2B2B2B"/>
<path d="M60.8499 0.784353H70.4991L79.5356 19.2415H72.9752L71.2394 16.1653H60.1096L58.3737 19.2415H51.8133L60.8499 0.784353ZM66.1084 4.94626H65.2405L62.2028 11.383H69.1206L66.1084 4.94626Z" fill="#2B2B2B"/>
<path d="M83.6561 0.784353H89.272V14.4592H102.01V19.2415H83.6561V0.784353Z" fill="#2B2B2B"/>
<path d="M117.106 0.5C122.314 0.5 125.521 0.939456 126.73 1.81837C127.785 2.57664 128.312 4.59297 128.312 7.86735H122.671C122.671 6.79887 122.39 6.11814 121.829 5.82517C121.131 5.46327 119.557 5.28231 117.106 5.28231C114.366 5.28231 112.758 5.49773 112.281 5.92857C111.805 6.35941 111.567 7.72086 111.567 10.0129C111.567 12.2878 111.805 13.6406 112.281 14.0714C112.758 14.5023 114.366 14.7177 117.106 14.7177C119.591 14.7177 121.139 14.5712 121.752 14.2782C122.382 13.968 122.696 13.2528 122.696 12.1327H128.312C128.312 15.4243 127.802 17.4406 126.781 18.1816C125.573 19.0605 122.348 19.5 117.106 19.5C111.864 19.5 108.691 19.0175 107.584 18.0524C106.495 17.0873 105.951 14.3989 105.951 9.98708C105.951 5.59252 106.478 2.92993 107.533 1.99932C108.674 0.999773 111.864 0.5 117.106 0.5Z" fill="#2B2B2B"/>
<path d="M157.638 10.0129C157.638 14.5109 157.102 17.1993 156.03 18.0782C154.873 19.0261 151.384 19.5 145.564 19.5C141.309 19.5 138.518 19.3449 137.191 19.0347C135.523 18.6383 134.468 17.7766 134.026 16.4497C133.685 15.4329 133.515 13.2873 133.515 10.0129C133.515 5.51497 134.043 2.82653 135.098 1.94762C136.255 0.98254 139.744 0.5 145.564 0.5C151.367 0.5 154.847 0.973923 156.004 1.92177C157.094 2.81791 157.638 5.51497 157.638 10.0129ZM139.131 10.0129C139.131 12.3739 139.395 13.7526 139.922 14.149C140.467 14.5281 142.347 14.7177 145.564 14.7177C148.797 14.7177 150.678 14.5281 151.205 14.149C151.75 13.7526 152.022 12.3739 152.022 10.0129C152.022 7.63469 151.75 6.25601 151.205 5.87687C150.678 5.4805 148.806 5.28231 145.589 5.28231C142.356 5.28231 140.467 5.4805 139.922 5.87687C139.395 6.25601 139.131 7.63469 139.131 10.0129Z" fill="#2B2B2B"/>
<path d="M188 0.810203H182.384V13.5286C182.52 14.0111 182.656 14.485 182.792 14.9503C182.792 15.1227 182.801 15.295 182.818 15.4673C182.699 15.4673 182.58 15.3553 182.461 15.1313C182.359 14.9073 182.256 14.6832 182.154 14.4592L172.556 0.810203H163.366V19.2673H168.982V6.52313C168.982 6.5059 168.838 6.03197 168.548 5.10136C168.531 4.92902 168.523 4.75669 168.523 4.58435C168.642 4.58435 168.753 4.70499 168.855 4.94626C168.974 5.17029 169.084 5.38571 169.187 5.59252L178.81 19.2673H188V0.810203Z" fill="#2B2B2B"/>
</g>
<defs>
<clipPath id="clip0_434_811">
<rect width="188" height="19" fill="white" transform="translate(0 0.5)"/>
</clipPath>
</defs>
</svg>
